<svg width="35" height="35" viewBox="0 0 35 35" fill="none" xmlns="http://www.w3.org/2000/svg">
<path d="M13.6489 1.00947C13.8365 1.07327 14.0197 1.14915 14.1974 1.23664L16.3354 2.28922C16.9155 2.57489 17.5955 2.57489 18.1757 2.28922L20.3137 1.23664C22.5845 0.118537 25.332 1.05314 26.45 3.3241L26.5725 3.59465L26.6772 3.87255L27.4447 6.12855C27.653 6.74084 28.1339 7.22167 28.746 7.42995L31.002 8.19739C33.3985 9.01259 34.6804 11.6162 33.8652 14.0126C33.8014 14.2001 33.7255 14.3833 33.638 14.561L32.5854 16.699C32.2997 17.2792 32.2997 17.9592 32.5854 18.5393L33.638 20.6773C34.7562 22.9482 33.8215 25.6957 31.5505 26.8137C31.3729 26.9012 31.1897 26.9772 31.002 27.0408L28.746 27.8083C28.1339 28.0167 27.653 28.4975 27.4447 29.1097L26.6772 31.3657C25.862 33.7622 23.2585 35.044 20.862 34.2288C20.6745 34.165 20.4914 34.0892 20.3137 34.0017L18.1757 32.949C17.5955 32.6633 16.9155 32.6633 16.3354 32.949L14.1974 34.0017C11.9264 35.1198 9.17901 34.1852 8.06091 31.9142C7.97341 31.7365 7.89752 31.5533 7.83374 31.3657L7.06631 29.1097C6.85802 28.4975 6.37719 28.0167 5.76491 27.8083L3.50891 27.0408C1.11246 26.2257 -0.169377 23.6222 0.645823 21.2257C0.709623 21.0382 0.785507 20.855 0.87299 20.6773L1.92557 18.5393C2.21124 17.9592 2.21124 17.2792 1.92557 16.699L0.87299 14.561C-0.24511 12.2901 0.68949 9.54265 2.96046 8.42455C3.13817 8.33705 3.32137 8.26117 3.50891 8.19739L5.76491 7.42995C6.37719 7.22167 6.85802 6.74084 7.06631 6.12855L7.83374 3.87255C8.64894 1.4761 11.2525 0.19427 13.6489 1.00947ZM10.2005 4.67767L9.43311 6.93367C8.97489 8.2807 7.91706 9.33854 6.57002 9.79675L4.31402 10.5642C4.22879 10.5932 4.14552 10.6277 4.06474 10.6675C3.03247 11.1757 2.60766 12.4245 3.11589 13.4568L4.16847 15.5947C4.79694 16.8712 4.79694 18.3672 4.16847 19.6437L3.11589 21.7815C3.07612 21.8623 3.04162 21.9457 3.01262 22.0308C2.64207 23.1202 3.22474 24.3035 4.31402 24.6742L6.57002 25.4415C7.91706 25.8998 8.97489 26.9577 9.43311 28.3047L10.2005 30.5607C10.2295 30.6458 10.264 30.7292 10.3038 30.8098C10.812 31.8422 12.0608 32.267 13.0931 31.7588L15.231 30.7062C16.5075 30.0777 18.0035 30.0777 19.28 30.7062L21.4179 31.7588C21.4987 31.7985 21.582 31.833 21.6672 31.862C22.7565 32.2325 23.9399 31.6498 24.3105 30.5607L25.0779 28.3047C25.5362 26.9577 26.594 25.8998 27.941 25.4415L30.197 24.6742C30.2822 24.6452 30.3655 24.6107 30.4462 24.5708C31.4785 24.0627 31.9034 22.8138 31.3952 21.7815L30.3425 19.6437C29.714 18.3672 29.714 16.8712 30.3425 15.5947L31.3952 13.4568C31.4349 13.376 31.4694 13.2927 31.4984 13.2075C31.8689 12.1182 31.2862 10.9347 30.197 10.5642L27.941 9.79675C26.594 9.33854 25.5362 8.2807 25.0779 6.93367L24.3105 4.67767L24.2629 4.55135L24.2072 4.42839L24.1035 4.24204C23.5437 3.34667 22.3857 3.00307 21.4179 3.47954L19.28 4.53212C18.0035 5.16059 16.5075 5.16059 15.231 4.53212L13.0931 3.47954C13.0123 3.43977 12.9291 3.40527 12.8438 3.37627C11.7545 3.00572 10.5711 3.58839 10.2005 4.67767ZM14.0062 21.6007L23.0384 12.5686C23.5265 12.0805 24.3179 12.0805 24.806 12.5686C25.2499 13.0124 25.2902 13.7068 24.927 14.1962L24.806 14.3363L14.806 24.3363C14.3297 24.8128 13.5724 24.82 13.0871 24.3828L12.9619 24.2527L8.79522 19.2527C8.35327 18.7223 8.42492 17.9342 8.95527 17.4922C9.43741 17.0905 10.1326 17.1132 10.5871 17.519L10.7158 17.6523L14.0062 21.6007Z" fill="#F99500"/>
</svg>
