<svg width="34" height="38" viewBox="0 0 34 38" fill="none" xmlns="http://www.w3.org/2000/svg">
<path d="M20.4831 19.0974H6.31641C5.63307 19.0974 5.06641 19.6641 5.06641 20.3474C5.06641 21.0307 5.63307 21.5974 6.31641 21.5974H20.4831C21.1664 21.5974 21.7331 21.0307 21.7331 20.3474C21.7331 19.6641 21.1664 19.0974 20.4831 19.0974ZM20.4831 26.5974H6.31641C5.63307 26.5974 5.06641 27.1641 5.06641 27.8474C5.06641 28.5307 5.63307 29.0974 6.31641 29.0974H20.4831C21.1664 29.0974 21.7331 28.5307 21.7331 27.8474C21.7331 27.1641 21.1664 26.5974 20.4831 26.5974ZM5.06641 12.8474C5.06641 13.5308 5.63307 14.0974 6.31641 14.0974H18.7331L18.5831 13.6308C18.4997 13.3974 18.3831 13.1808 18.2331 12.9808C18.1664 12.8974 18.1164 12.8308 18.0497 12.7641C17.7997 12.5141 17.4997 12.3308 17.1831 12.2308L15.2331 11.5974H6.31641C5.63307 11.5974 5.06641 12.1641 5.06641 12.8474ZM26.3997 22.9141L25.9664 21.5974L24.6331 21.1141C24.4831 21.0641 24.3664 20.9807 24.2331 20.9141V33.6807C24.2331 34.3641 23.6664 34.9307 22.9831 34.9307H3.81641C3.13307 34.9307 2.56641 34.3641 2.56641 33.6807V7.84743C2.56641 7.1641 3.13307 6.59743 3.81641 6.59743H13.0331C13.0831 6.49743 13.1164 6.38076 13.1831 6.28076C13.5831 5.7141 14.1497 5.28076 14.8331 5.04743L17.1831 4.28076C17.2997 4.23076 17.4331 4.1641 17.5497 4.09743H3.81641C1.74974 4.09743 0.0664062 5.78076 0.0664062 7.84743V33.6807C0.0664062 35.7474 1.74974 37.4307 3.81641 37.4307H22.9831C25.0497 37.4307 26.7331 35.7474 26.7331 33.6807V23.5474C26.5997 23.3474 26.4831 23.1474 26.3997 22.9141ZM19.8164 11.0141C19.9497 11.1474 20.0831 11.2974 20.1997 11.4641C20.5331 11.8808 20.7831 12.3641 20.9497 12.8808L21.6997 15.1808C21.7664 15.3641 21.8831 15.5141 22.0331 15.6141C22.1831 15.7308 22.3664 15.7808 22.5497 15.7808C22.7331 15.7808 22.9164 15.7308 23.0664 15.6141C23.1997 15.5141 23.3164 15.3808 23.3831 15.2308V15.1808L24.1497 12.8808C24.3831 12.1808 24.7664 11.5474 25.2997 11.0308C25.8164 10.5141 26.4497 10.1141 27.1497 9.88076L29.4497 9.13076C29.6331 9.0641 29.7831 8.94743 29.8831 8.79743C29.9997 8.64743 30.0497 8.46409 30.0497 8.28076C30.0497 8.09743 29.9997 7.91409 29.8831 7.76409C29.7664 7.6141 29.6164 7.49743 29.4497 7.43076H29.3997L27.0997 6.68076C26.3997 6.44743 25.7664 6.0641 25.2497 5.53076C24.7331 5.0141 24.3331 4.38076 24.0997 3.68076L23.3497 1.38076C23.2831 1.19743 23.1664 1.04743 23.0164 0.947429C22.8664 0.847428 22.6831 0.780762 22.4997 0.780762C22.3164 0.780762 22.1331 0.830762 21.9831 0.947429C21.8331 1.04743 21.7164 1.2141 21.6497 1.38076L20.8997 3.68076V3.73076C20.6497 4.39743 20.2664 5.0141 19.7831 5.5141C19.2664 6.03076 18.6497 6.43076 17.9497 6.6641L15.6497 7.4141C15.4664 7.48076 15.3164 7.59743 15.2164 7.74743C15.0997 7.89743 15.0497 8.08076 15.0497 8.2641C15.0497 8.44743 15.0997 8.63076 15.2164 8.78076C15.3164 8.93076 15.4831 9.04743 15.6497 9.11409L17.9497 9.8641C18.6497 10.0974 19.2831 10.4974 19.7997 11.0141H19.8164ZM33.0331 17.7974C33.1394 17.7974 33.2506 17.8984 33.3164 17.9807C33.3831 18.0641 33.3997 18.1641 33.3997 18.2641C33.3997 18.3641 33.3831 18.4641 33.3164 18.5474C33.2497 18.6307 33.1664 18.6974 33.0664 18.7307L31.7831 19.1474C31.3997 19.2807 31.0497 19.4974 30.7497 19.7807C30.4664 20.0641 30.2497 20.4141 30.1164 20.8141L29.6997 22.0807C29.6664 22.1807 29.5997 22.2641 29.5164 22.3307C29.4331 22.3974 29.3331 22.4307 29.2331 22.4307C29.1331 22.4307 29.0331 22.3974 28.9497 22.3307C28.8664 22.2641 28.7997 22.1807 28.7664 22.0807L28.3497 20.8141C28.2164 20.4307 27.9997 20.0641 27.7164 19.7807C27.4331 19.4974 27.0664 19.2641 26.6831 19.1474L25.3997 18.7307C25.2997 18.6974 25.2164 18.6307 25.1497 18.5474C25.0831 18.4641 25.0497 18.3641 25.0497 18.2641C25.0497 18.1641 25.0831 18.0641 25.1497 17.9807C25.2164 17.8974 25.2997 17.8307 25.3997 17.7974L26.6831 17.3808C27.0664 17.2474 27.4164 17.0308 27.6997 16.7474C27.9831 16.4641 28.1997 16.1141 28.3164 15.7308L28.7331 14.4641C28.7664 14.3641 28.8331 14.2808 28.9164 14.2141C28.9997 14.1474 29.0997 14.1141 29.1997 14.1141C29.2997 14.1141 29.3997 14.1474 29.4831 14.2141C29.5664 14.2808 29.6331 14.3641 29.6664 14.4641L30.0831 15.7308C30.2164 16.1141 30.4331 16.4641 30.7164 16.7641C30.9997 17.0474 31.3497 17.2641 31.7497 17.3974L33.0331 17.7974Z" fill="#F99500"/>
</svg>
