<svg width="35" height="35" viewBox="0 0 35 35" fill="none" xmlns="http://www.w3.org/2000/svg">
<path d="M6.56771 7.4307C6.56771 5.12952 8.43319 3.26404 10.7344 3.26404C13.0356 3.26404 14.901 5.12952 14.901 7.4307C14.901 9.73189 13.0356 11.5974 10.7344 11.5974C8.43319 11.5974 6.56771 9.73189 6.56771 7.4307ZM10.7344 0.764038C7.05247 0.764038 4.06771 3.7488 4.06771 7.4307C4.06771 11.1126 7.05247 14.0974 10.7344 14.0974C14.4162 14.0974 17.401 11.1126 17.401 7.4307C17.401 3.7488 14.4162 0.764038 10.7344 0.764038ZM23.2344 9.09737C23.2344 7.71665 24.3537 6.59737 25.7344 6.59737C27.115 6.59737 28.2344 7.71665 28.2344 9.09737C28.2344 10.4781 27.115 11.5974 25.7344 11.5974C24.3537 11.5974 23.2344 10.4781 23.2344 9.09737ZM25.7344 4.09737C22.9729 4.09737 20.7344 6.33595 20.7344 9.09737C20.7344 11.8588 22.9729 14.0974 25.7344 14.0974C28.4959 14.0974 30.7344 11.8588 30.7344 9.09737C30.7344 6.33595 28.4959 4.09737 25.7344 4.09737ZM4.48438 17.4307C2.41331 17.4307 0.734375 19.1097 0.734375 21.1807V21.5992V21.601L0.734392 21.6054L0.734492 21.6159L0.734958 21.6435C0.735442 21.665 0.736325 21.6925 0.737875 21.7259C0.740975 21.7922 0.746792 21.8815 0.757675 21.9904C0.779392 22.2075 0.821592 22.5057 0.903792 22.858C1.06763 23.56 1.39528 24.498 2.05409 25.4392C3.41881 27.3889 6.02068 29.0974 10.7344 29.0974C15.448 29.0974 18.0499 27.3889 19.4147 25.4392C20.0735 24.498 20.4012 23.56 20.5649 22.858C20.6472 22.5057 20.6894 22.2075 20.711 21.9904C20.722 21.8815 20.7277 21.7922 20.7309 21.7259C20.7324 21.6925 20.7334 21.665 20.7337 21.6435L20.7342 21.6159L20.7344 21.6054V21.601V21.1807C20.7344 19.1097 19.0554 17.4307 16.9844 17.4307H4.48438ZM3.23516 21.6094L3.23438 21.5885V21.1807C3.23438 20.4904 3.79403 19.9307 4.48438 19.9307H16.9844C17.6747 19.9307 18.2344 20.4904 18.2344 21.1807V21.5884L18.2335 21.6094C18.2324 21.6344 18.2297 21.6795 18.2235 21.7415C18.211 21.866 18.1849 22.0562 18.1304 22.2899C18.0207 22.7597 17.8015 23.3842 17.3665 24.0055C16.5439 25.1809 14.7707 26.5974 10.7344 26.5974C6.69808 26.5974 4.92494 25.1809 4.10216 24.0055C3.66723 23.3842 3.44801 22.7597 3.33839 22.2899C3.28388 22.0562 3.25771 21.866 3.24526 21.7415C3.23906 21.6795 3.23633 21.6344 3.23516 21.6094ZM27.7217 19.0889L28.5142 17.0812C28.9184 16.057 30.0487 15.5254 31.0945 15.8677L31.813 16.1027C33.02 16.4977 34.022 17.4462 34.0627 18.7172C34.228 23.9022 29.9369 31.3549 25.3745 33.809C24.2525 34.4127 22.9274 34.0134 21.9819 33.157L21.4207 32.6487C20.6062 31.9109 20.5029 30.6669 21.1847 29.8059L22.5179 28.1222C23.0015 27.5114 23.7957 27.238 24.5525 27.4217L26.7047 27.944C28.5432 26.7274 29.5285 25.0169 29.6605 22.8127L28.1335 21.206C27.596 20.6407 27.4354 19.8142 27.7217 19.0889Z" fill="#F99500"/>
</svg>
