<svg width="108" height="107" viewBox="0 0 108 107" fill="none" xmlns="http://www.w3.org/2000/svg">
<path d="M49.8359 7.17188C52.0705 4.4375 56.2508 4.4375 58.4854 7.17188C60.7826 9.98276 64.7492 10.7716 67.9473 9.05371C71.058 7.38269 74.9192 8.98225 75.9375 12.3633C76.9841 15.8395 80.3479 18.087 83.96 17.7236C87.4733 17.3704 90.4283 20.3256 90.0752 23.8389C89.7119 27.451 91.9594 30.8147 95.4355 31.8613C98.8167 32.8795 100.416 36.7408 98.7451 39.8516C97.0272 43.0495 97.8162 47.0162 100.627 49.3135C103.361 51.548 103.361 55.7283 100.627 57.9629C97.8162 60.2601 97.0273 64.2268 98.7451 67.4248C100.416 70.5356 98.8167 74.3968 95.4355 75.415C91.9594 76.4617 89.7119 79.8254 90.0752 83.4375C90.4284 86.9508 87.4733 89.906 83.96 89.5527C80.3479 89.1894 76.9841 91.4369 75.9375 94.9131C74.9193 98.2942 71.058 99.8937 67.9473 98.2227C64.7493 96.5048 60.7826 97.2937 58.4854 100.104C56.2508 102.839 52.0705 102.839 49.8359 100.104C47.5387 97.2937 43.572 96.5048 40.374 98.2227C37.2633 99.8937 33.402 98.2942 32.3838 94.9131C31.3372 91.4369 27.9734 89.1894 24.3613 89.5527C20.848 89.9059 17.8929 86.9508 18.2461 83.4375C18.6094 79.8254 16.3619 76.4617 12.8857 75.415C9.50471 74.3968 7.90515 70.5355 9.57617 67.4248C11.2941 64.2268 10.5052 60.2601 7.69434 57.9629C4.95996 55.7283 4.95996 51.548 7.69434 49.3135C10.5052 47.0162 11.2941 43.0496 9.57617 39.8516C7.90519 36.7408 9.50471 32.8796 12.8857 31.8613C16.3619 30.8147 18.6094 27.451 18.2461 23.8389C17.893 20.3256 20.8481 17.3705 24.3613 17.7236C27.9734 18.087 31.3372 15.8395 32.3838 12.3633C33.4021 8.98224 37.2633 7.38273 40.374 9.05371C43.572 10.7716 47.5387 9.98272 49.8359 7.17188Z" fill="#FFF5E1" stroke="#FF9C09" stroke-width="2"/>
<path d="M24.9508 57.2998L24.9508 56.361C24.9508 55.5076 25.1025 54.7301 25.406 54.0284C25.7094 53.3267 26.1171 52.6914 26.6292 52.1224C27.1412 51.5345 27.7102 50.9845 28.336 50.4725C28.9808 49.9415 29.6256 49.4389 30.2704 48.9648C31.0669 48.3769 31.8161 47.789 32.5178 47.2011C33.2194 46.5942 33.7884 45.9494 34.2246 45.2666C34.6608 44.565 34.8789 43.7874 34.8789 42.934C34.8789 42.5357 34.784 42.1375 34.5944 41.7392C34.4047 41.3409 34.0918 41.0091 33.6556 40.7435C33.2384 40.478 32.6695 40.3453 31.9488 40.3453C31.2281 40.3453 30.6308 40.4686 30.1566 40.7151C29.6825 40.9427 29.3222 41.2746 29.0756 41.7108C28.8481 42.1469 28.7343 42.6874 28.7343 43.3322L28.7343 44.4986L25.2637 44.4986C25.2448 44.4038 25.2258 44.2615 25.2068 44.0719C25.1879 43.8822 25.1784 43.6452 25.1784 43.3607C25.1784 41.9573 25.4913 40.8289 26.1171 39.9755C26.7619 39.1031 27.6059 38.4678 28.6489 38.0695C29.711 37.6523 30.8583 37.4437 32.091 37.4437C33.3807 37.4437 34.4332 37.6333 35.2487 38.0126C36.0831 38.3919 36.7279 38.8755 37.1831 39.4634C37.6572 40.0513 37.9796 40.6772 38.1503 41.3409C38.3399 42.0047 38.4348 42.6116 38.4348 43.1616C38.4348 44.0719 38.2736 44.9063 37.9512 45.6649C37.6477 46.4045 37.221 47.1062 36.671 47.77C36.1211 48.4148 35.4668 49.0406 34.7082 49.6475C33.9686 50.2354 33.172 50.8328 32.3186 51.4397C31.8824 51.7431 31.4557 52.0466 31.0385 52.35C30.6213 52.6534 30.2515 52.9569 29.9291 53.2603C29.6256 53.5637 29.3886 53.8672 29.2179 54.1706L38.5486 54.1706L38.5486 57.2998L24.9508 57.2998ZM48.0548 57.6412C46.6893 57.6412 45.4851 57.3851 44.442 56.8731C43.4179 56.361 42.6214 55.6309 42.0524 54.6827C41.4835 53.7155 41.199 52.5681 41.199 51.2406L44.7834 51.2406C44.7834 51.9612 44.9161 52.5965 45.1816 53.1465C45.4471 53.6775 45.8264 54.0853 46.3195 54.3697C46.8126 54.6542 47.391 54.7965 48.0548 54.7965C48.6996 54.7965 49.2591 54.6542 49.7332 54.3697C50.2073 54.0853 50.5771 53.6586 50.8426 53.0896C51.1271 52.5017 51.2693 51.7811 51.2693 50.9276C51.2693 50.1311 51.1366 49.4768 50.8711 48.9648C50.6056 48.4338 50.2357 48.045 49.7616 47.7984C49.2875 47.5329 48.747 47.4002 48.1401 47.4002C47.685 47.4002 47.2678 47.476 46.8885 47.6278C46.5092 47.7795 46.1773 47.9786 45.8928 48.2252C45.6083 48.4527 45.3618 48.7182 45.1532 49.0217L41.8533 48.595L42.6498 37.785L53.858 37.785L53.858 40.9427L45.6652 40.9427L45.3523 45.7503C45.6178 45.5606 45.9213 45.3804 46.2626 45.2098C46.604 45.0391 47.0023 44.8968 47.4574 44.783C47.9315 44.6693 48.472 44.6124 49.0789 44.6124C50.1599 44.6124 51.1366 44.8399 52.009 45.2951C52.8813 45.7503 53.5735 46.4425 54.0856 47.3717C54.5976 48.301 54.8537 49.4863 54.8537 50.9276C54.8537 52.35 54.5787 53.5637 54.0287 54.5689C53.4787 55.574 52.6917 56.3421 51.6676 56.8731C50.6625 57.3851 49.4582 57.6412 48.0548 57.6412ZM61.5443 57.2998L75.8248 37.785L78.5842 37.785L64.2468 57.2998L61.5443 57.2998ZM63.4218 47.7131C62.4736 47.7131 61.6486 47.5614 60.9469 47.258C60.2452 46.9356 59.7047 46.4045 59.3254 45.6649C58.9651 44.9253 58.7849 43.9012 58.7849 42.5926C58.7849 41.2651 58.9651 40.2315 59.3254 39.4919C59.7047 38.7522 60.2452 38.2307 60.9469 37.9273C61.6486 37.6049 62.4736 37.4437 63.4218 37.4437C64.389 37.4437 65.214 37.6049 65.8967 37.9273C66.5795 38.2307 67.101 38.7522 67.4613 39.4919C67.8406 40.2315 68.0303 41.2651 68.0303 42.5926C68.0303 43.9012 67.8406 44.9348 67.4613 45.6934C67.101 46.433 66.5795 46.9545 65.8967 47.258C65.214 47.5614 64.389 47.7131 63.4218 47.7131ZM63.4218 45.608C64.1994 45.608 64.7114 45.352 64.958 44.8399C65.2045 44.3279 65.3278 43.6357 65.3278 42.7633L65.3278 42.3935C65.3278 41.8245 65.2709 41.3315 65.1571 40.9142C65.0623 40.478 64.8726 40.1462 64.5882 39.9186C64.3227 39.672 63.9339 39.5488 63.4218 39.5488C62.6632 39.5488 62.1512 39.8143 61.8857 40.3453C61.6391 40.8573 61.5159 41.5401 61.5159 42.3935L61.5159 42.7633C61.5159 43.6357 61.6391 44.3279 61.8857 44.8399C62.1512 45.352 62.6632 45.608 63.4218 45.608ZM76.6213 57.6412C75.6731 57.6412 74.8481 57.4895 74.1464 57.186C73.4637 56.8636 72.9327 56.3326 72.5534 55.593C72.193 54.8533 72.0129 53.8292 72.0129 52.5207C72.0129 51.1931 72.193 50.1596 72.5534 49.4199C72.9327 48.6803 73.4637 48.1588 74.1464 47.8553C74.8481 47.5329 75.6731 47.3717 76.6213 47.3717C77.5885 47.3717 78.4135 47.5329 79.0962 47.8553C79.7979 48.1588 80.3289 48.6803 80.6893 49.4199C81.0496 50.1596 81.2298 51.1931 81.2298 52.5207C81.2298 53.8292 81.0496 54.8628 80.6893 55.6214C80.3289 56.361 79.7979 56.8826 79.0962 57.186C78.4135 57.4895 77.5885 57.6412 76.6213 57.6412ZM76.6213 55.5361C77.3989 55.5361 77.9109 55.2801 78.1575 54.768C78.404 54.237 78.5273 53.5353 78.5273 52.6629L78.5273 52.3215C78.5273 51.7526 78.4704 51.2595 78.3566 50.8423C78.2618 50.4061 78.0816 50.0742 77.8161 49.8466C77.5506 49.6001 77.1523 49.4768 76.6213 49.4768C75.8627 49.4768 75.3602 49.7423 75.1136 50.2734C74.8671 50.7854 74.7438 51.4681 74.7438 52.3215L74.7438 52.6629C74.7438 53.5353 74.8671 54.237 75.1136 54.768C75.3602 55.2801 75.8627 55.5361 76.6213 55.5361Z" fill="black"/>
<path d="M35.9474 73.2998L33.593 73.2998L33.593 66.0271L36.0219 66.0271C36.7345 66.0271 37.3465 66.1727 37.8579 66.4639C38.3692 66.7527 38.761 67.1682 39.0333 67.7103C39.3079 68.2501 39.4452 68.8976 39.4452 69.6528C39.4452 70.4104 39.3067 71.0614 39.0297 71.6059C38.7551 72.1504 38.3574 72.5695 37.8366 72.863C37.3157 73.1542 36.686 73.2998 35.9474 73.2998ZM34.6903 72.341L35.887 72.341C36.441 72.341 36.9014 72.2368 37.2684 72.0285C37.6353 71.8178 37.9099 71.5136 38.0922 71.1159C38.2745 70.7158 38.3657 70.2281 38.3657 69.6528C38.3657 69.0822 38.2745 68.5981 38.0922 68.2004C37.9123 67.8026 37.6436 67.5008 37.2861 67.2948C36.9287 67.0889 36.4848 66.9859 35.9545 66.9859L34.6903 66.9859L34.6903 72.341ZM40.7245 73.2998L40.7245 67.8453L41.7863 67.8453L41.7863 73.2998L40.7245 73.2998ZM41.2607 67.0036C41.0761 67.0036 40.9175 66.9421 40.7849 66.819C40.6547 66.6935 40.5896 66.5444 40.5896 66.3715C40.5896 66.1963 40.6547 66.0472 40.7849 65.9241C40.9175 65.7986 41.0761 65.7359 41.2607 65.7359C41.4454 65.7359 41.6028 65.7986 41.733 65.9241C41.8656 66.0472 41.9319 66.1963 41.9319 66.3715C41.9319 66.5444 41.8656 66.6935 41.733 66.819C41.6028 66.9421 41.4454 67.0036 41.2607 67.0036ZM47.3021 69.1769L46.3398 69.3474C46.2995 69.2243 46.2356 69.1071 46.148 68.9958C46.0628 68.8846 45.9468 68.7934 45.8 68.7224C45.6532 68.6514 45.4697 68.6159 45.2496 68.6159C44.9489 68.6159 44.6979 68.6833 44.4967 68.8183C44.2955 68.9508 44.1949 69.1225 44.1949 69.3332C44.1949 69.5155 44.2623 69.6623 44.3973 69.7735C44.5322 69.8848 44.75 69.9759 45.0507 70.047L45.9172 70.2458C46.4191 70.3618 46.7931 70.5406 47.0393 70.782C47.2855 71.0235 47.4086 71.3372 47.4086 71.7231C47.4086 72.0498 47.3139 72.341 47.1246 72.5967C46.9375 72.85 46.6759 73.0489 46.3398 73.1933C46.0059 73.3377 45.6189 73.4099 45.1785 73.4099C44.5677 73.4099 44.0694 73.2797 43.6835 73.0193C43.2976 72.7565 43.0609 72.3836 42.9733 71.9007L43.9996 71.7444C44.0635 72.0119 44.1949 72.2143 44.3937 72.3517C44.5926 72.4866 44.8518 72.5541 45.1714 72.5541C45.5194 72.5541 45.7976 72.4819 46.0059 72.3374C46.2143 72.1907 46.3184 72.0119 46.3184 71.8012C46.3184 71.6308 46.2545 71.4875 46.1267 71.3715C46.0012 71.2555 45.8083 71.1679 45.5479 71.1088L44.6246 70.9063C44.1156 70.7903 43.7391 70.6057 43.4953 70.3524C43.2538 70.099 43.1331 69.7783 43.1331 69.39C43.1331 69.068 43.223 68.7863 43.403 68.5448C43.5829 68.3034 43.8315 68.1151 44.1487 67.9802C44.4659 67.8429 44.8293 67.7742 45.2389 67.7742C45.8284 67.7742 46.2924 67.9021 46.6309 68.1578C46.9695 68.4111 47.1932 68.7508 47.3021 69.1769ZM50.8737 73.4099C50.3457 73.4099 49.8912 73.2903 49.51 73.0512C49.1312 72.8097 48.84 72.4771 48.6365 72.0534C48.4329 71.6296 48.3311 71.1443 48.3311 70.5974C48.3311 70.0434 48.4352 69.5545 48.6436 69.1308C48.8519 68.7046 49.1454 68.372 49.5242 68.1329C49.903 67.8938 50.3493 67.7742 50.863 67.7742C51.2773 67.7742 51.6466 67.8512 51.971 68.0051C52.2953 68.1566 52.5569 68.3696 52.7558 68.6443C52.957 68.9189 53.0766 69.2397 53.1144 69.6066L52.0811 69.6066C52.0242 69.3509 51.894 69.1308 51.6904 68.9461C51.4892 68.7615 51.2193 68.6691 50.8808 68.6691C50.5848 68.6691 50.3256 68.7472 50.1031 68.9035C49.8829 69.0574 49.7113 69.2776 49.5882 69.564C49.465 69.8481 49.4035 70.1843 49.4035 70.5725C49.4035 70.9703 49.4639 71.3135 49.5846 71.6024C49.7053 71.8912 49.8758 72.1149 50.096 72.2735C50.3185 72.4321 50.5801 72.5115 50.8808 72.5115C51.082 72.5115 51.2643 72.4748 51.4276 72.4014C51.5934 72.3256 51.7319 72.2179 51.8431 72.0782C51.9568 71.9385 52.0361 71.7704 52.0811 71.574L53.1144 71.574C53.0766 71.9267 52.9617 72.2416 52.77 72.5186C52.5782 72.7955 52.3213 73.0133 51.9994 73.172C51.6798 73.3306 51.3045 73.4099 50.8737 73.4099ZM56.5475 73.4099C56.0361 73.4099 55.5899 73.2927 55.2087 73.0583C54.8276 72.824 54.5316 72.4961 54.3209 72.0747C54.1102 71.6533 54.0049 71.1608 54.0049 70.5974C54.0049 70.0316 54.1102 69.5368 54.3209 69.113C54.5316 68.6892 54.8276 68.3602 55.2087 68.1258C55.5899 67.8914 56.0361 67.7742 56.5475 67.7742C57.0589 67.7742 57.5051 67.8914 57.8863 68.1258C58.2674 68.3602 58.5634 68.6892 58.7741 69.113C58.9848 69.5368 59.0901 70.0316 59.0901 70.5974C59.0901 71.1608 58.9848 71.6533 58.7741 72.0747C58.5634 72.4961 58.2674 72.824 57.8863 73.0583C57.5051 73.2927 57.0589 73.4099 56.5475 73.4099ZM56.551 72.5186C56.8825 72.5186 57.1571 72.431 57.3749 72.2558C57.5927 72.0806 57.7537 71.8474 57.8579 71.5562C57.9644 71.265 58.0177 70.9442 58.0177 70.5938C58.0177 70.2458 57.9644 69.9262 57.8579 69.635C57.7537 69.3415 57.5927 69.1059 57.3749 68.9284C57.1571 68.7508 56.8825 68.662 56.551 68.662C56.2172 68.662 55.9403 68.7508 55.7201 68.9284C55.5023 69.1059 55.3401 69.3415 55.2336 69.635C55.1294 69.9262 55.0773 70.2458 55.0773 70.5938C55.0773 70.9442 55.1294 71.265 55.2336 71.5562C55.3401 71.8474 55.5023 72.0806 55.7201 72.2558C55.9403 72.431 56.2172 72.5186 56.551 72.5186ZM63.7306 71.0377L63.7306 67.8453L64.7959 67.8453L64.7959 73.2998L63.7519 73.2998L63.7519 72.3552L63.695 72.3552C63.5696 72.6464 63.3683 72.8891 63.0914 73.0832C62.8167 73.2749 62.4746 73.3708 62.0651 73.3708C61.7147 73.3708 61.4046 73.2939 61.1347 73.14C60.8672 72.9838 60.6565 72.7529 60.5026 72.4475C60.3511 72.1421 60.2753 71.7645 60.2753 71.3147L60.2753 67.8453L61.3371 67.8453L61.3371 71.1869C61.3371 71.5586 61.4401 71.8545 61.646 72.0747C61.852 72.2948 62.1195 72.4049 62.4486 72.4049C62.6475 72.4049 62.8451 72.3552 63.0416 72.2558C63.2405 72.1563 63.405 72.006 63.5352 71.8048C63.6678 71.6035 63.7329 71.3479 63.7306 71.0377ZM67.2844 70.0612L67.2844 73.2998L66.2226 73.2998L66.2226 67.8453L67.2417 67.8453L67.2417 68.733L67.3092 68.733C67.4347 68.4442 67.6312 68.2122 67.8987 68.037C68.1686 67.8618 68.5083 67.7742 68.9179 67.7742C69.2896 67.7742 69.6151 67.8524 69.8944 68.0086C70.1738 68.1625 70.3904 68.3921 70.5443 68.6975C70.6982 69.0029 70.7751 69.3805 70.7751 69.8303L70.7751 73.2998L69.7133 73.2998L69.7133 69.9582C69.7133 69.5628 69.6103 69.2539 69.4044 69.0313C69.1984 68.8064 68.9155 68.694 68.5557 68.694C68.3094 68.694 68.0905 68.7472 67.8987 68.8538C67.7093 68.9603 67.559 69.1166 67.4477 69.3225C67.3388 69.5261 67.2844 69.7723 67.2844 70.0612ZM74.7453 67.8453L74.7453 68.6975L71.7659 68.6975L71.7659 67.8453L74.7453 67.8453ZM72.5649 66.5384L73.6267 66.5384L73.6267 71.6982C73.6267 71.9042 73.6575 72.0593 73.719 72.1634C73.7806 72.2652 73.8599 72.3351 73.9569 72.373C74.0564 72.4085 74.1641 72.4262 74.2801 72.4262C74.3653 72.4262 74.4399 72.4203 74.5038 72.4085C74.5677 72.3966 74.6175 72.3872 74.653 72.3801L74.8447 73.2572C74.7832 73.2809 74.6956 73.3045 74.5819 73.3282C74.4683 73.3543 74.3263 73.3685 74.1558 73.3708C73.8764 73.3756 73.616 73.3258 73.3746 73.2217C73.1331 73.1175 72.9378 72.9565 72.7886 72.7387C72.6395 72.5209 72.5649 72.2475 72.5649 71.9184L72.5649 66.5384Z" fill="#323232"/>
</svg>
