<svg width="264" height="250" viewBox="0 0 264 250" fill="none" xmlns="http://www.w3.org/2000/svg">
<path d="M74.6208 242.587L43.5613 249.288L38.3826 225.286L33.2039 201.284L64.2634 194.582L69.4421 218.584L74.6208 242.587Z" fill="black"/>
<path d="M148.942 226.551L112.336 234.449L107.157 210.447L101.369 183.621L95.5813 156.795L132.187 148.897L137.975 175.723L143.763 202.549L148.942 226.551Z" fill="black"/>
<path d="M216.607 211.951L178.892 220.089L170.667 181.968L163.965 150.906L158.025 123.375L152.085 95.8429L189.8 87.7055L195.74 115.237L201.68 142.769L208.382 173.831L216.607 211.951Z" fill="black"/>
<path d="M38.3826 225.286L33.2039 201.284L64.2634 194.582L69.4421 218.584M38.3826 225.286L43.5613 249.288L74.6208 242.587L69.4421 218.584M38.3826 225.286L69.4421 218.584M107.157 210.447L112.336 234.449L148.942 226.551L143.763 202.549M107.157 210.447L143.763 202.549M107.157 210.447L101.369 183.621M143.763 202.549L137.975 175.723M137.975 175.723L132.187 148.897L95.5813 156.795L101.369 183.621M137.975 175.723L101.369 183.621M170.667 181.968L178.892 220.089L216.607 211.951L208.382 173.831M170.667 181.968L208.382 173.831M170.667 181.968L163.965 150.906M208.382 173.831L201.68 142.769M201.68 142.769L163.965 150.906M201.68 142.769L195.74 115.237M163.965 150.906L158.025 123.375M158.025 123.375L152.085 95.8429L189.8 87.7055L195.74 115.237M158.025 123.375L195.74 115.237" stroke="white"/>
<path fill-rule="evenodd" clip-rule="evenodd" d="M50.1288 177.515C56.0101 176.246 59.6633 170.052 58.2885 163.68C56.9138 157.308 51.0316 153.172 45.1503 154.44C39.2691 155.709 35.6158 161.903 36.9906 168.275C38.3654 174.647 44.2476 178.784 50.1288 177.515ZM50.7512 180.399C58.1027 178.813 62.6693 171.07 60.9508 163.106C59.2323 155.141 51.8796 149.97 44.528 151.556C37.1764 153.142 32.6099 160.885 34.3284 168.85C36.0468 176.814 43.3996 181.985 50.7512 180.399Z" fill="black"/>
<path d="M58.2885 163.68C59.6633 170.052 56.0101 176.246 50.1288 177.515C44.2476 178.784 38.3654 174.647 36.9906 168.275C35.6158 161.903 39.2691 155.709 45.1503 154.44C51.0316 153.172 56.9138 157.308 58.2885 163.68Z" fill="#F4AB3E"/>
<path d="M117.303 129.752C118.269 134.232 115.701 138.587 111.565 139.48C107.43 140.372 103.294 137.463 102.328 132.983C101.361 128.503 103.93 124.148 108.065 123.256C112.2 122.363 116.336 125.272 117.303 129.752Z" fill="#F4AB3E"/>
<path fill-rule="evenodd" clip-rule="evenodd" d="M119.799 129.214C121.087 135.187 117.662 140.994 112.149 142.184C106.635 143.373 101.121 139.495 99.8317 133.522C98.5429 127.548 101.968 121.741 107.481 120.552C112.995 119.362 118.51 123.24 119.799 129.214ZM111.565 139.48C115.701 138.587 118.269 134.232 117.303 129.752C116.336 125.272 112.2 122.363 108.065 123.256C103.93 124.148 101.361 128.503 102.328 132.983C103.294 137.463 107.43 140.372 111.565 139.48Z" fill="#F4AB3E"/>
<path fill-rule="evenodd" clip-rule="evenodd" d="M172.451 77.2418C178.332 75.9728 181.986 69.7788 180.611 63.407C179.236 57.0352 173.354 52.8986 167.473 54.1675C161.591 55.4365 157.938 61.6305 159.313 68.0023C160.688 74.374 166.57 78.5107 172.451 77.2418ZM173.073 80.126C180.425 78.5399 184.992 70.7973 183.273 62.8326C181.555 54.8679 174.202 49.6971 166.85 51.2832C159.499 52.8694 154.932 60.612 156.651 68.5767C158.369 76.5414 165.722 81.7122 173.073 80.126Z" fill="black"/>
<path d="M180.611 63.407C181.986 69.7788 178.332 75.9728 172.451 77.2418C166.57 78.5107 160.688 74.374 159.313 68.0023C157.938 61.6305 161.591 55.4365 167.473 54.1675C173.354 52.8986 179.236 57.0352 180.611 63.407Z" fill="#F4AB3E"/>
<path d="M43.7244 153.206C44.9408 133.735 58.0537 100.171 100.774 121.688" stroke="white" stroke-dasharray="4 4"/>
<path d="M107.127 118.842C103.058 94.6004 107.391 49.0415 157.28 60.7373" stroke="white" stroke-dasharray="4 4"/>
<path d="M221.963 11.3186C221.999 11.3106 222.036 11.3027 222.073 11.2948C222.038 11.3034 222.002 11.3114 221.963 11.3186Z" fill="black"/>
<path d="M176.575 53.311C182.541 39.7103 199 16.273 222.073 11.2948M222.073 11.2948C218.716 15.4668 212.751 25.1269 215.745 30.3915M222.073 11.2948C219.869 11.8449 208.957 9.69185 205.215 3.11109" stroke="white"/>
</svg>
