<svg width="442" height="461" viewBox="0 0 442 461" fill="none" xmlns="http://www.w3.org/2000/svg">
<path d="M344.486 291.766C325.761 342.069 269.069 367.426 217.839 348.356C166.609 329.285 140.298 273.03 159.023 222.727C177.748 172.425 234.44 147.067 285.67 166.138C336.9 185.208 363.211 241.463 344.486 291.766Z" stroke="#F4AB3E" stroke-width="2"/>
<path d="M143.409 59.5526C156.451 61.4927 165.83 75.3398 164.122 90.6751C162.415 106.01 150.308 116.662 137.266 114.721C124.223 112.781 114.845 98.9341 116.552 83.5988C118.26 68.2635 130.366 57.6125 143.409 59.5526Z" fill="black" stroke="white" stroke-width="1.5"/>
<path d="M153.753 106.733C144.914 77.1009 129.787 91.0297 122.976 102.222C122.783 102.54 122.792 102.942 123.007 103.261C127.4 109.791 139.011 119.01 153.434 107.798C153.742 107.558 153.869 107.12 153.753 106.733Z" fill="black" stroke="#F4AB3E" stroke-width="2"/>
<path d="M138.977 71.5651C130.987 75.3868 132.894 81.9226 136.616 86.4342C138.659 88.9104 142.176 89.4623 144.842 87.8888C152.793 83.1963 150.386 76.1416 145.821 72.2898C143.889 70.6595 141.183 70.5103 138.977 71.5651Z" fill="black" stroke="#F4AB3E" stroke-width="2"/>
<path d="M127.418 110.174L99.233 135.932" stroke="white" stroke-width="1.5"/>
<path d="M117.447 82.5802L100.753 80.097C100.197 80.0142 99.698 80.4094 99.651 80.971L97.2611 109.528M97.2611 109.528L105.247 103.953M97.2611 109.528L90.757 101.798" stroke="white" stroke-width="1.5"/>
<path d="M82.039 138.741C94.8632 140.648 104.085 154.46 102.376 169.807C100.667 185.154 88.7201 195.817 75.8959 193.909C63.0719 192.001 53.8511 178.19 55.56 162.843C57.2688 147.496 69.2149 136.833 82.039 138.741Z" fill="black" stroke="white" stroke-width="1.5"/>
<path d="M69.5279 169.74L60.0794 178.051C59.8479 177.968 61.5975 182.51 65.811 187.028C66.1885 187.433 66.8092 187.449 67.1927 187.078L76.1525 178.397C93.0686 183.983 95.1426 169.395 94.0126 161.874C91.7611 169.978 85.3608 168.899 82.4947 166.874C78.354 161.655 84.5846 155.677 88.2175 153.34C75.3667 147.593 70.4033 161.878 69.5279 169.74Z" fill="black" stroke="#F4AB3E" stroke-width="2"/>
<path d="M102.402 176.339L146.928 182.963" stroke="white" stroke-width="1.5"/>
<path d="M191.805 158.909C204.629 160.816 213.85 174.628 212.142 189.975C210.433 205.322 198.486 215.985 185.662 214.077C172.838 212.169 163.617 198.358 165.326 183.011C167.034 167.664 178.981 157.001 191.805 158.909Z" fill="black" stroke="white" stroke-width="1.5"/>
<path d="M195.385 177.945L188.172 176.872M180.337 196.03L188.35 197.222M188.35 197.222V197.222C190.462 197.536 192.803 197.649 194.374 196.262C195.686 195.103 195.792 193.653 195.327 192.254C194.337 189.276 190.959 188.069 187.898 187.613V187.613C185.717 187.289 183.323 186.696 182.146 184.786C180.646 182.353 182.049 179.933 183.834 178.254C184.976 177.179 186.582 176.823 188.172 176.872V176.872M188.35 197.222L187.723 202.854M188.172 176.872L188.768 171.522" stroke="#F4AB3E" stroke-width="2"/>
<path d="M179.307 160.899L157.852 126.22" stroke="white" stroke-width="1.5"/>
<path d="M190.293 158.693L193.442 130.413C193.504 129.864 193.11 129.353 192.564 129.272L173.177 126.388M173.177 126.388L183.904 119.344M173.177 126.388L181.091 137.165" stroke="white" stroke-width="1.5"/>
<path d="M367.74 292.242C346.574 363.373 272.598 404.111 202.526 383.26C132.454 362.409 92.7846 287.855 113.95 216.724C135.116 145.592 209.092 104.854 279.165 125.704C349.237 146.555 388.906 221.11 367.74 292.242Z" stroke="#F4AB3E" stroke-opacity="0.33" stroke-width="1.5"/>
</svg>
