<svg width="19" height="19" viewBox="0 0 19 19" fill="none" xmlns="http://www.w3.org/2000/svg">
<path d="M3.83594 8.6875C3.83594 7.44486 4.8433 6.4375 6.08594 6.4375C7.32858 6.4375 8.33594 7.44486 8.33594 8.6875C8.33594 9.9301 7.32858 10.9375 6.08594 10.9375C4.8433 10.9375 3.83594 9.9301 3.83594 8.6875ZM6.08594 7.9375C5.67173 7.9375 5.33594 8.2733 5.33594 8.6875C5.33594 9.1017 5.67173 9.4375 6.08594 9.4375C6.50015 9.4375 6.83594 9.1017 6.83594 8.6875C6.83594 8.2733 6.50015 7.9375 6.08594 7.9375ZM6.08594 11.9375C4.8433 11.9375 3.83594 12.9449 3.83594 14.1875C3.83594 15.4301 4.8433 16.4375 6.08594 16.4375C7.32858 16.4375 8.33594 15.4301 8.33594 14.1875C8.33594 12.9449 7.32858 11.9375 6.08594 11.9375ZM5.33594 14.1875C5.33594 13.7733 5.67173 13.4375 6.08594 13.4375C6.50015 13.4375 6.83594 13.7733 6.83594 14.1875C6.83594 14.6017 6.50015 14.9375 6.08594 14.9375C5.67173 14.9375 5.33594 14.6017 5.33594 14.1875ZM9.83594 8.6875C9.83594 8.2733 10.1717 7.9375 10.5859 7.9375H15.0859C15.5001 7.9375 15.8359 8.2733 15.8359 8.6875C15.8359 9.1017 15.5001 9.4375 15.0859 9.4375H10.5859C10.1717 9.4375 9.83594 9.1017 9.83594 8.6875ZM10.5859 13.4375C10.1717 13.4375 9.83594 13.7733 9.83594 14.1875C9.83594 14.6017 10.1717 14.9375 10.5859 14.9375H15.0859C15.5001 14.9375 15.8359 14.6017 15.8359 14.1875C15.8359 13.7733 15.5001 13.4375 15.0859 13.4375H10.5859ZM3.83594 4.6875C3.83594 4.27329 4.17173 3.9375 4.58594 3.9375H15.0859C15.5001 3.9375 15.8359 4.27329 15.8359 4.6875C15.8359 5.10171 15.5001 5.4375 15.0859 5.4375H4.58594C4.17173 5.4375 3.83594 5.10171 3.83594 4.6875ZM4.08594 0.9375C2.29101 0.9375 0.835938 2.39257 0.835938 4.1875V15.6875C0.835938 17.4824 2.29101 18.9375 4.08594 18.9375H15.5859C17.3808 18.9375 18.8359 17.4824 18.8359 15.6875V4.1875C18.8359 2.39257 17.3808 0.9375 15.5859 0.9375H4.08594ZM2.33594 4.1875C2.33594 3.221 3.11944 2.4375 4.08594 2.4375H15.5859C16.5524 2.4375 17.3359 3.221 17.3359 4.1875V15.6875C17.3359 16.654 16.5524 17.4375 15.5859 17.4375H4.08594C3.11944 17.4375 2.33594 16.654 2.33594 15.6875V4.1875Z" fill="#F99500"/>
</svg>
