<svg width="21" height="20" viewBox="0 0 21 20" fill="none" xmlns="http://www.w3.org/2000/svg">
<path d="M16.3282 1.26789L19.5069 4.44667C20.3856 5.32535 20.3856 6.74997 19.5069 7.62865L16.9225 10.2126C18.0055 10.375 18.8359 11.3093 18.8359 12.4376V17.6876C18.8359 18.9302 17.8285 19.9376 16.5859 19.9376H3.08594C1.8433 19.9376 0.835938 18.9302 0.835938 17.6876V4.18756C0.835938 2.94492 1.8433 1.93756 3.08594 1.93756H8.33594C9.46484 1.93756 10.3996 2.76902 10.5612 3.85297L13.1462 1.26789C14.0249 0.389219 15.4495 0.389219 16.3282 1.26789ZM2.33594 17.6876C2.33594 18.1018 2.67173 18.4376 3.08594 18.4376L9.08494 18.4369L9.08594 11.6876L2.33594 11.6869V17.6876ZM10.5849 18.4369L16.5859 18.4376C17.0001 18.4376 17.3359 18.1018 17.3359 17.6876V12.4376C17.3359 12.0233 17.0001 11.6876 16.5859 11.6876L10.5849 11.6869V18.4369ZM8.33594 3.43756H3.08594C2.67173 3.43756 2.33594 3.77335 2.33594 4.18756V10.1869H9.08594V4.18756C9.08594 3.77335 8.75014 3.43756 8.33594 3.43756ZM10.5859 8.24689V10.1876L12.5259 10.1869L10.5859 8.24689ZM14.2068 2.32855L11.0281 5.50733C10.7352 5.80022 10.7352 6.27509 11.0281 6.56799L14.2068 9.74671C14.4997 10.0396 14.9746 10.0396 15.2675 9.74671L18.4463 6.56799C18.7392 6.27509 18.7392 5.80022 18.4463 5.50733L15.2675 2.32855C14.9746 2.03566 14.4997 2.03566 14.2068 2.32855Z" fill="#F99500"/>
</svg>
