<svg width="20" height="22" viewBox="0 0 20 22" fill="none" xmlns="http://www.w3.org/2000/svg">
<path d="M7.47682 14.4358C7.64922 13.9022 7.88872 13.3988 8.18532 12.9354H2.41536C1.17308 12.9354 0.166016 13.9425 0.166016 15.1848V15.7626C0.166016 16.6556 0.484596 17.5193 1.06448 18.1984C2.47676 19.8522 4.55531 20.7509 7.25632 20.912L7.70722 19.4309C5.20533 19.3514 3.38814 18.6091 2.20541 17.2241C1.85748 16.8166 1.66633 16.2984 1.66633 15.7626V15.1848C1.66633 14.7711 2.00168 14.4358 2.41536 14.4358H7.47682ZM8.16412 0.9375C10.9261 0.9375 13.1651 3.17657 13.1651 5.9386C13.1651 8.70064 10.9261 10.9397 8.16412 10.9397C5.40213 10.9397 3.16309 8.70064 3.16309 5.9386C3.16309 3.17657 5.40213 0.9375 8.16412 0.9375ZM8.16412 2.43783C6.23072 2.43783 4.6634 4.00518 4.6634 5.9386C4.6634 7.87203 6.23072 9.4394 8.16412 9.4394C10.0975 9.4394 11.6648 7.87203 11.6648 5.9386C11.6648 4.00518 10.0975 2.43783 8.16412 2.43783ZM19.166 16.4363C19.166 19.4745 16.7031 21.9375 13.6649 21.9375C12.6972 21.9375 11.7879 21.6877 10.998 21.249L8.81092 21.9145C8.42812 22.031 8.07032 21.6732 8.18692 21.2904L8.85262 19.1039C8.41372 18.3138 8.16372 17.4042 8.16372 16.4363C8.16372 13.398 10.6267 10.9351 13.6649 10.9351C16.7031 10.9351 19.166 13.398 19.166 16.4363ZM11.6645 14.936C11.3883 14.936 11.1644 15.1599 11.1644 15.4361C11.1644 15.7123 11.3883 15.9362 11.6645 15.9362H15.6653C15.9415 15.9362 16.1654 15.7123 16.1654 15.4361C16.1654 15.1599 15.9415 14.936 15.6653 14.936H11.6645ZM11.1644 17.4365C11.1644 17.7127 11.3883 17.9366 11.6645 17.9366H13.6649C13.9411 17.9366 14.165 17.7127 14.165 17.4365C14.165 17.1603 13.9411 16.9364 13.6649 16.9364H11.6645C11.3883 16.9364 11.1644 17.1603 11.1644 17.4365Z" fill="#F99500"/>
</svg>
