<svg width="22" height="22" viewBox="0 0 22 22" fill="none" xmlns="http://www.w3.org/2000/svg">
<path d="M11.3359 1.6875C11.3359 1.27329 11.0001 0.9375 10.5859 0.9375C10.1717 0.9375 9.83594 1.27329 9.83594 1.6875V1.9375H4.08594C2.29101 1.9375 0.835938 3.39257 0.835938 5.1875V14.6875C0.835938 16.4824 2.29101 17.9375 4.08594 17.9375H6.48441L5.00927 19.7074C4.74407 20.0256 4.78703 20.4985 5.10522 20.7637C5.42341 21.0289 5.89634 20.986 6.16153 20.6678L8.43708 17.9375H11.9448C12.1227 17.3226 12.5079 16.7958 13.0196 16.4375H4.08594C3.11944 16.4375 2.33594 15.654 2.33594 14.6875V5.1875C2.33594 4.221 3.11944 3.4375 4.08594 3.4375H17.5859C18.5524 3.4375 19.3359 4.221 19.3359 5.1875V10.5648C20.2426 11.1973 20.8359 12.2481 20.8359 13.4375V5.1875C20.8359 3.39257 19.3808 1.9375 17.5859 1.9375H11.3359V1.6875ZM4.83594 6.6875C4.83594 6.27329 5.17173 5.9375 5.58594 5.9375H9.58594C10.0001 5.9375 10.3359 6.27329 10.3359 6.6875C10.3359 7.10171 10.0001 7.4375 9.58594 7.4375H5.58594C5.17173 7.4375 4.83594 7.10171 4.83594 6.6875ZM5.58594 8.9375C5.17173 8.9375 4.83594 9.2733 4.83594 9.6875C4.83594 10.1017 5.17173 10.4375 5.58594 10.4375H12.0859C12.5001 10.4375 12.8359 10.1017 12.8359 9.6875C12.8359 9.2733 12.5001 8.9375 12.0859 8.9375H5.58594ZM4.83594 12.6875C4.83594 12.2733 5.17173 11.9375 5.58594 11.9375H11.0859C11.5001 11.9375 11.8359 12.2733 11.8359 12.6875C11.8359 13.1017 11.5001 13.4375 11.0859 13.4375H5.58594C5.17173 13.4375 4.83594 13.1017 4.83594 12.6875ZM19.8359 13.4375C19.8359 14.8182 18.7166 15.9375 17.3359 15.9375C15.9552 15.9375 14.8359 14.8182 14.8359 13.4375C14.8359 12.0568 15.9552 10.9375 17.3359 10.9375C18.7166 10.9375 19.8359 12.0568 19.8359 13.4375ZM21.8359 18.8125C21.8359 20.369 20.5502 21.9375 17.3359 21.9375C14.1216 21.9375 12.8359 20.3749 12.8359 18.8125V18.7095C12.8359 17.7304 13.6296 16.9375 14.6086 16.9375H20.0632C21.0422 16.9375 21.8359 17.7305 21.8359 18.7095V18.8125Z" fill="#F99500"/>
</svg>
